<?xml version="1.0" encoding="UTF-8"?> <svg xmlns="http://www.w3.org/2000/svg" xmlns:xlink="http://www.w3.org/1999/xlink" width="1920" height="646" viewBox="0 0 1920 646"><defs><clipPath id="clip-path"><rect id="Rectangle_201" data-name="Rectangle 201" width="1920" height="646" transform="translate(155 556)" fill="#fff"></rect></clipPath><linearGradient id="linear-gradient" x1="0.223" y1="0.917" x2="0.219" y2="0.162" gradientUnits="objectBoundingBox"><stop offset="0" stop-color="#2e354e"></stop><stop offset="1" stop-color="#373f59"></stop></linearGradient><linearGradient id="linear-gradient-2" x1="0.278" y1="0.727" x2="0.464" y2="-0.446" gradientUnits="objectBoundingBox"><stop offset="0" stop-color="#f87d4d"></stop><stop offset="0.545" stop-color="#d6e06b"></stop><stop offset="1" stop-color="#f87d4d"></stop></linearGradient><linearGradient id="linear-gradient-3" x1="0.5" x2="0.5" y2="1" gradientUnits="objectBoundingBox"><stop offset="0" stop-color="#88d286"></stop><stop offset="1" stop-color="#d6e06b"></stop></linearGradient></defs><g id="Mask_Group_27" data-name="Mask Group 27" transform="translate(-155 -556)" clip-path="url(#clip-path)"><g id="Group_223" data-name="Group 223" transform="translate(155 122)"><path id="Path_136" data-name="Path 136" d="M17052.824,6278.558c78.072,4.419,436.117,195.563,436.117,195.563s126.16-6.456,487.9,61.111,564.682,252.209,946.342,80.35c168.693-75.961,306.914-144.167,487.82-141.527s271.756,25.948,422,85.729c269.256,107.133,55.8,412.794,0,410.563s-1167.307-22.319-1314.613,0-629.406,29.015-819.121,24.551-370.5-11.159-386.125-84.813S17052.824,6278.558,17052.824,6278.558Z" transform="translate(-17491 -5718)" opacity="0.67" fill="url(#linear-gradient)"></path><path id="Path_137" data-name="Path 137" d="M16786.738,6537.5c58.555,3.314,132.852,66.148,466.059,66.148s402.736-136.709,807.211-141.485,549.16,242.672,760.875,189.846,352.256-48.5,352.256-48.5,383.787-173.746,642.016-155.446c283.455,20.087,73.654,524.505,17.855,522.273s-1167.307-22.319-1314.613,0-629.406,29.015-819.121,24.551-370.5-11.159-386.125-84.813S16786.738,6537.5,16786.738,6537.5Z" transform="translate(-17252 -5674)" opacity="0.57" fill="url(#linear-gradient-2)"></path><path id="Path_138" data-name="Path 138" d="M19826.314,6122.208c-488.795,332.559-781.18,428.533-1055.709,319.167s-982.051-301.312-1493.166,13.392-33.479,332.559-33.479,332.559" transform="translate(-17454 -5711)" fill="none" stroke="#fff" stroke-width="2" opacity="0.05"></path><path id="Path_139" data-name="Path 139" d="M19826.314,6122.208c-200.4,136.349-528.629,414.181-528.629,414.181s-365.107-30.488-527.08-95.014c-231.975-92.413-663.834-258.993-945.123-191.1s-301.965,63.607-436.506,51.813c-511.115,314.7-145.016,485.239-145.016,485.239" transform="translate(-18030.236 -3151.374) rotate(-7)" fill="none" stroke="#f2f5ee" stroke-width="1" opacity="0.31"></path><path id="Path_140" data-name="Path 140" d="M19947.609,6654.96c-102.529,69.757-388.293-236.6-388.293-236.6s-133.211-24.208-269.2,14.672-242.129,139.251-542.625,47.089-476.584-287.728-707.871-367.234c-208.758-71.762-362.975-94.684-362.975-94.684s-267.115,163.255-420.873,220.762c-796.645,297.956-11.809,548.355-11.809,548.355" transform="matrix(0.978, -0.208, 0.208, 0.978, -18545.227, -1705.484)" fill="none" stroke="#98ff23" stroke-width="2" opacity="0.15"></path><circle id="Ellipse_122" data-name="Ellipse 122" cx="22.779" cy="22.779" r="22.779" transform="translate(1641.758 749.159)" fill="#dec521"></circle><ellipse id="Ellipse_123" data-name="Ellipse 123" cx="59.478" cy="58.213" rx="59.478" ry="58.213" transform="translate(1748.971 450.946)" opacity="0.58" fill="url(#linear-gradient-3)"></ellipse><circle id="Ellipse_124" data-name="Ellipse 124" cx="22.779" cy="22.779" r="22.779" transform="translate(950.867 605.496)" opacity="0.58" fill="url(#linear-gradient-3)"></circle><circle id="Ellipse_125" data-name="Ellipse 125" cx="8.858" cy="8.858" r="8.858" transform="translate(873.732 710.275)" fill="#69ae1a" opacity="0.58"></circle><circle id="Ellipse_126" data-name="Ellipse 126" cx="8.858" cy="8.858" r="8.858" transform="translate(1876.283 651.159)" fill="#69ae1a" opacity="0.58"></circle><circle id="Ellipse_127" data-name="Ellipse 127" cx="5.062" cy="5.062" r="5.062" transform="translate(975.162 734.089)" fill="#dec521"></circle><circle id="Ellipse_128" data-name="Ellipse 128" cx="5.062" cy="5.062" r="5.062" transform="translate(108 641.655)" fill="#dec521"></circle></g></g></svg> 