<?xml version="1.0" encoding="UTF-8"?> <!-- Generator: Adobe Illustrator 24.1.0, SVG Export Plug-In . SVG Version: 6.00 Build 0) --> <svg xmlns="http://www.w3.org/2000/svg" xmlns:xlink="http://www.w3.org/1999/xlink" id="Layer_1" x="0px" y="0px" viewBox="0 0 1920 515" style="enable-background:new 0 0 1920 515;" xml:space="preserve"> <g id="Layer_2_1_"> <g id="Layer_1-2"> <g> <defs> <rect id="SVGID_1_" width="1920" height="515"></rect> </defs> <clipPath id="SVGID_2_"> <use xlink:href="#SVGID_1_" style="overflow:visible;"></use> </clipPath> <g style="clip-path:url(#SVGID_2_);"> <linearGradient id="SVGID_3_" gradientUnits="userSpaceOnUse" x1="1084.3296" y1="333.7435" x2="-487.5204" y2="646.1237" gradientTransform="matrix(1 0 0 -1 681.46 908.9656)"> <stop offset="9.000000e-02" style="stop-color:#F87D4D"></stop> <stop offset="0.55" style="stop-color:#D7DE6A"></stop> <stop offset="1" style="stop-color:#F87D4D"></stop> </linearGradient> <path style="opacity:0.81;fill:url(#SVGID_3_);enable-background:new ;" d="M-405.2,182.6c656.9-110.1,392.7,59.2,977.5,99.4 s799.5-92.2,1130.8-129.3s437.6,63.7,706.8,170.8s45.9,356-9.9,353.8s-1167.3-22.3-1314.6,0s-629.4,29-819.1,24.6 s-370.5-11.2-386.1-84.8S-405.2,182.6-405.2,182.6z"></path> <linearGradient id="SVGID_4_" gradientUnits="userSpaceOnUse" x1="1170.4388" y1="101.323" x2="1170.4388" y2="102.323" gradientTransform="matrix(3077.6001 0 0 582.58 -3601285.25 -58863.2031)"> <stop offset="0" style="stop-color:#88D286"></stop> <stop offset="1" style="stop-color:#D6E06B"></stop> </linearGradient> <path style="opacity:0.81;fill:url(#SVGID_4_);enable-background:new ;" d="M-681.5,542.6c88,5,135.9-254.2,516.6-350.4 C-33,159,182.9,156.9,427.7,180s703.2,275.6,1084.8,103.7s455.2-104.7,738.6-84.7s73.6,524.5,17.9,522.3s-1167.3-22.3-1314.6,0 s-629.4,29-819.1,24.6s-370.5-11.2-386.1-84.8S-681.5,542.6-681.5,542.6z"></path> <path style="opacity:0.33;fill:none;stroke:#F87D4D;stroke-width:2;enable-background:new ;" d="M2489.3-43.8 c-488.8,332.6-781.2,428.5-1055.7,319.2S571.9,0.5-0.3,269.3s-92.7,352-92.7,352"></path> <path style="opacity:0.31;fill:none;stroke:#F2F5EE;enable-background:new ;" d="M2785.7-108.7 c-450.1,347.2-1137.4,563.2-1423.3,488.1S369.4,142-214,396.7s103.4,512.1,103.4,512.1"></path> <path style="opacity:0.15;fill:none;stroke:#D6E06B;stroke-width:2;enable-background:new ;" d="M2535.4-189.6 c-416.5,384.5-832.5,524.6-1316.7,495.4S421.8-97.1-295.4,360s102.5,538.8,102.5,538.8"></path> <circle style="fill:#D6E06B;" cx="1657.5" cy="162.9" r="22.8"></circle> <ellipse style="opacity:0.58;fill:#D6E06B;enable-background:new ;" cx="968.5" cy="244.2" rx="59.5" ry="58.2"></ellipse> <linearGradient id="SVGID_5_" gradientUnits="userSpaceOnUse" x1="1130.3666" y1="97.0344" x2="1130.3666" y2="98.0344" gradientTransform="matrix(45.56 0 0 45.56 -51414.8633 -4269.6118)"> <stop offset="0" style="stop-color:#88D286"></stop> <stop offset="1" style="stop-color:#D6E06B"></stop> </linearGradient> <circle style="opacity:0.58;fill:url(#SVGID_5_);enable-background:new ;" cx="84.6" cy="175.3" r="22.8"></circle> <circle style="opacity:0.58;fill:#88D286;enable-background:new ;" cx="859.6" cy="144.1" r="8.9"></circle> <circle style="opacity:0.58;fill:#65B863;enable-background:new ;" cx="1801.1" cy="98" r="8.9"></circle> <circle style="fill:#F87D4D;" cx="1289.2" cy="220.1" r="5.1"></circle> <circle style="fill:#F87D4D;" cx="734.1" cy="202.7" r="5.1"></circle> <circle style="fill:#F87D4D;" cx="820.1" cy="307.7" r="5.1"></circle> </g> </g> </g> </g> </svg> 