<?xml version="1.0" encoding="UTF-8"?> <svg xmlns="http://www.w3.org/2000/svg" width="31.419" height="31.418" viewBox="0 0 31.419 31.418"><g id="Group_75" data-name="Group 75" transform="translate(-381.791 -606.791)"><g id="Ellipse_51" data-name="Ellipse 51" transform="translate(393.291 606.791) rotate(30)" fill="none" stroke="#1e2333" stroke-width="2"><circle cx="11.5" cy="11.5" r="11.5" stroke="none"></circle><circle cx="11.5" cy="11.5" r="10.5" fill="none"></circle></g><g id="Intersection_1" data-name="Intersection 1" transform="translate(6757.712 10787.289) rotate(30)" fill="none"><path d="M-10598.553-5614.649a21.611,21.611,0,0,0,1.586-8.21,21.6,21.6,0,0,0-1.587-8.21,11.462,11.462,0,0,1,8.053-3.29,11.467,11.467,0,0,1,8.057,3.292,21.58,21.58,0,0,0-1.586,8.205,21.607,21.607,0,0,0,1.586,8.21,11.467,11.467,0,0,1-8.057,3.292A11.461,11.461,0,0,1-10598.553-5614.649Z" stroke="none"></path><path d="M -10590.5009765625 -5613.35986328125 C -10588.421875 -5613.35986328125 -10586.439453125 -5614.025390625 -10584.8037109375 -5615.2548828125 C -10585.6181640625 -5617.66650390625 -10586.0302734375 -5620.21875 -10586.0302734375 -5622.8623046875 C -10586.0302734375 -5625.50390625 -10585.6181640625 -5628.0546875 -10584.8037109375 -5630.46484375 C -10586.439453125 -5631.69384765625 -10588.421875 -5632.359375 -10590.5009765625 -5632.359375 C -10592.5791015625 -5632.359375 -10594.5595703125 -5631.6943359375 -10596.1943359375 -5630.46630859375 C -10595.37890625 -5628.0546875 -10594.966796875 -5625.50244140625 -10594.966796875 -5622.859375 C -10594.966796875 -5620.216796875 -10595.37890625 -5617.66455078125 -10596.193359375 -5615.25244140625 C -10594.55859375 -5614.0244140625 -10592.578125 -5613.35986328125 -10590.5009765625 -5613.35986328125 M -10590.5009765625 -5611.35986328125 C -10593.63671875 -5611.35986328125 -10596.478515625 -5612.61474609375 -10598.552734375 -5614.6494140625 C -10597.5146484375 -5617.17822265625 -10596.966796875 -5619.96533203125 -10596.966796875 -5622.859375 C -10596.966796875 -5625.7529296875 -10597.5146484375 -5628.5400390625 -10598.5537109375 -5631.0693359375 C -10596.4794921875 -5633.1044921875 -10593.63671875 -5634.359375 -10590.5009765625 -5634.359375 C -10587.36328125 -5634.359375 -10584.51953125 -5633.103515625 -10582.4443359375 -5631.0673828125 C -10583.4833984375 -5628.53857421875 -10584.0302734375 -5625.7529296875 -10584.0302734375 -5622.8623046875 C -10584.0302734375 -5619.9697265625 -10583.4833984375 -5617.1826171875 -10582.4443359375 -5614.65185546875 C -10584.51953125 -5612.61572265625 -10587.36328125 -5611.35986328125 -10590.5009765625 -5611.35986328125 Z" stroke="none" fill="#1e2333"></path></g></g></svg> 